
<svg xmlns="http://www.w3.org/2000/svg" version="1.1" xmlns:xlink="http://www.w3.org/1999/xlink" preserveAspectRatio="none" x="0px" y="0px" width="1024px" height="1024px" viewBox="0 0 1024 1024">
<defs>
<g id="Layer0_0_MEMBER_0_MEMBER_0_FILL">
<path fill="#E2CFC1" stroke="none" d="
M 31.9 360.05
Q 12.75 360.9 12.75 362.05 12.75 363.2 31.9 364.05 51.05 364.85 78.15 364.85 105.3 364.85 124.45 364.05 143.6 363.2 143.6 362.05 143.6 360.9 124.45 360.05 105.15 359.2 78.15 359.2 51.15 359.2 31.9 360.05 Z"/>
</g>

<g id="Layer0_0_MEMBER_1_FILL">
<path fill="#BFD5F0" stroke="none" d="
M 38.1 326.35
L 34.75 326.35 34.75 362 38.1 362 38.1 326.35 Z"/>
</g>

<g id="Layer0_0_MEMBER_2_FILL">
<path fill="#9CBAD8" stroke="none" d="
M 38.1 326.35
L 36.45 326.35 36.45 362 38.1 362 38.1 326.35 Z"/>
</g>

<g id="Layer0_0_MEMBER_3_FILL">
<path fill="#BFD5F0" stroke="none" d="
M 86.15 326.45
L 82.8 326.45 82.8 362.15 86.15 362.15 86.15 326.45 Z"/>
</g>

<g id="Layer0_0_MEMBER_4_FILL">
<path fill="#9CBAD8" stroke="none" d="
M 86.15 326.45
L 84.45 326.45 84.45 362.15 86.15 362.15 86.15 326.45 Z"/>
</g>

<g id="Layer0_0_MEMBER_5_MEMBER_0_FILL">
<path fill="#F8D646" stroke="none" d="
M 93.9 291.55
Q 89.25 292.2 88.1 296.55 87.55 298.6 86.15 306.2 84.85 313.15 83.65 317 82 322.2 79.9 324.45 75.55 328.95 65.8 330.05 63.9 330.25 62.45 331.75 60.6 333.65 63.3 335.85 72.1 343.05 82.55 342.25 90.2 341.65 97.25 337.15 105.95 331.6 105.5 313.05 105.35 306.2 103.95 300.1 102.6 294.4 101.25 293.35 98.1 290.95 93.9 291.55 Z"/>
</g>

<g id="Layer0_0_MEMBER_6_MEMBER_0_MEMBER_0_MEMBER_0_MEMBER_0_MEMBER_0_FILL">
<path fill="#FFDA89" stroke="none" d="
M 59.75 356.45
L 60 352.15 58.6 351.85 57.7 353.9 56.95 354.65 52.15 356.6 59.75 356.45 Z"/>
</g>

<g id="Layer0_0_MEMBER_6_MEMBER_1_MEMBER_0_MEMBER_0_MEMBER_0_MEMBER_0_FILL">
<path fill="#282E76" stroke="none" d="
M 75.35 324.5
Q 68.8 325.1 68.1 325.05 61.95 324.65 61.8 324.65 56.6 324.85 55.9 327.25 55.2 329.65 56.45 341.5 57.1 347.4 57.85 352.85
L 60.5 353.35 63.45 332
Q 68.85 334.5 76.75 335.35 80.75 335.8 83.6 335.7 86.4 334.7 90.15 331
L 93.35 327.5
Q 90.1 326.65 86.25 325.85 78.5 324.3 75.35 324.5 Z"/>
</g>

<g id="Layer0_0_MEMBER_6_MEMBER_2_MEMBER_0_MEMBER_0_MEMBER_0_MEMBER_0_FILL">
<path fill="#FFDA89" stroke="none" d="
M 70.3 359.4
L 70.6 355.05 69.2 354.75 68.3 356.8 67.5 357.55 62.75 359.5 70.3 359.4 Z"/>
</g>

<g id="Layer0_0_MEMBER_6_MEMBER_3_MEMBER_0_MEMBER_0_MEMBER_0_MEMBER_0_MEMBER_0_FILL">
<path fill="#F7A66F" stroke="none" d="
M 50.35 306.35
L 51 305.3
Q 50.45 304.75 49.8 304.2 48.55 303.1 48.1 303.2 47.15 303.35 47.25 304.2 47.35 305.3 50.35 306.35 Z"/>
</g>

<g id="Layer0_0_MEMBER_6_MEMBER_3_MEMBER_1_MEMBER_0_MEMBER_0_MEMBER_0_MEMBER_0_MEMBER_0_FILL">
<path fill="#FFC7CA" stroke="none" d="
M 75.6 307.05
Q 78.8 303.75 78.35 301.95 77.9 300.25 75.65 301.4
L 73.5 302.95 64.1 311.4 50.75 305 49.9 306.35 65.6 317.15 75.6 307.05 Z"/>
</g>

<g id="Layer0_0_MEMBER_6_MEMBER_4_MEMBER_0_MEMBER_0_MEMBER_0_MEMBER_0_FILL">
<path fill="#81236D" stroke="none" d="
M 76.2 316.75
Q 76.85 319.85 75.35 324.5
L 94.8 329.2 91.4 319.25 91.2 305
Q 88 303.95 84.65 302.9 77.9 300.85 76.95 300.95 76 301.05 75.1 304 74.45 306.3 74.2 308.35 74 309.9 74.8 312.35 76.1 316.2 76.2 316.75 Z"/>
</g>

<g id="Layer0_0_MEMBER_6_MEMBER_5_MEMBER_0_MEMBER_0_MEMBER_0_MEMBER_0_FILL">
<path fill="#19164F" stroke="none" d="
M 79.6 326.45
Q 77.2 326.5 76.85 326.5 72.2 326.65 70.4 326.95 65.1 327.8 64.55 330.25 64.05 332.7 66.15 344.4 67.15 350.3 68.3 355.65
L 71.05 355.95 72.4 334.5
Q 79.1 336.25 84.25 336.75 87.2 337.05 92.3 337.05 95.25 337 95.35 333.1
L 94.8 329.2
Q 89.5 327.65 84.55 326.85 82.3 326.5 79.6 326.45 Z"/>
</g>

<g id="Layer0_0_MEMBER_6_MEMBER_6_MEMBER_0_MEMBER_0_MEMBER_0_MEMBER_0_FILL">
<path fill="#F7A66F" stroke="none" d="
M 84.8 299.8
L 82.45 299.55 82.1 301.35
Q 81.65 303.35 81.3 304.3 80.7 306 85.3 303.4
L 84.8 299.8 Z"/>
</g>

<g id="Layer0_0_MEMBER_6_MEMBER_7_MEMBER_0_MEMBER_0_MEMBER_0_MEMBER_0_FILL">
<path fill="#F7A66F" stroke="none" d="
M 85.2 295.8
Q 85.05 295.3 84.55 295.05 83.9 294.75 83 295.1 81.8 295.6 81.3 297.8 80.9 299.6 81.15 300.5 81.65 302 82.9 301.7 83.65 301.5 84.35 300.55 84.7 300.1 85.35 298.9 85.8 298.1 85.2 295.8 Z"/>
</g>

<g id="Layer0_0_MEMBER_6_MEMBER_8_MEMBER_0_MEMBER_0_MEMBER_0_MEMBER_0_FILL">
<path fill="#2E3B57" stroke="none" d="
M 85.8 295.95
Q 85.45 294.85 82.85 294.7 80.2 294.55 79.55 295.75
L 81.4 296.15
Q 83.35 296.55 84.1 296.4 84.9 296.3 85.05 296.85 85.05 296.9 85.05 297.55 84.95 297.75 84.9 298.5 84.8 299.35 85.05 299.4 85.4 299.45 85.75 298.25 86.1 297 85.8 295.95 Z"/>
</g>

<g id="Layer0_0_MEMBER_6_MEMBER_9_MEMBER_0_MEMBER_0_MEMBER_0_MEMBER_0_FILL">
<path fill="#2E3B57" stroke="none" d="
M 84.1 300.95
L 84.7 300
Q 83.35 301 82.15 300.75 81.65 300.6 81.35 299.85 81.1779296875 299.4025390625 81.15 299.1 81.122265625 299.399609375 81.05 300.05 81.1 301.5 82.2 301.7 83.25 301.9 84.1 300.95 Z"/>
</g>

<g id="Layer0_0_MEMBER_6_MEMBER_10_MEMBER_0_MEMBER_0_MEMBER_0_MEMBER_0_MEMBER_0_FILL">
<path fill="#FFC190" stroke="none" d="
M 65.3 316.45
L 65.65 315.25
Q 65 314.85 64.2 314.5 62.7 313.75 62.3 313.95 61.5 314.45 61.75 315.2 62.15 316.25 65.3 316.45 Z"/>
</g>

<g id="Layer0_0_MEMBER_6_MEMBER_10_MEMBER_1_MEMBER_0_MEMBER_0_MEMBER_0_MEMBER_0_MEMBER_0_FILL">
<path fill="#FFC7CA" stroke="none" d="
M 79.9 317.9
L 65.35 315.05 64.85 316.55 82.75 323.05 89.95 310.75
Q 92.2 306.75 91.3 305.15 90.45 303.6 88.55 305.3 87.6 306.15 86.85 307.3
L 79.9 317.9 Z"/>
</g>

<g id="Layer0_0_MEMBER_7_MEMBER_0_FILL">
<path fill="#F7AF48" stroke="none" d="
M 76.55 338.35
Q 74.5 339.6 78.75 342.25
L 82.35 342.25
Q 86.75 342 90.55 340.75 102.7 336.65 104.55 323.75
L 102.7 325.7
Q 100.35 328.1 97.65 330.1 89 336.65 80.3 337.5 77.6 337.7 76.55 338.35 Z"/>
</g>

<g id="Layer0_0_MEMBER_8_MEMBER_0_MEMBER_0_FILL">
<path fill="#78BBAC" stroke="none" d="
M 126.9 338.65
Q 126.8 337.45 124.75 336.65 124.7 336.6 125.3 333.35 125.95 329.95 123.45 328.65 120.3 326.95 121.4 321.6 122 319.05 122.2 318.2 122.45 316.8 121.7 316.85 119.3 317.1 118.35 320.6 117.45 323.7 117.95 328.5 118.45 333.25 116.7 334.1 115.8 334.55 114.75 334 113 333.2 112.45 334.45 111.85 335.9 112.55 340.55 113.3 345.5 114.95 348.8 116.65 352.15 118.25 351.9
L 118.6 351.75 119.05 351.85
Q 119.5 351.85 120 351.6 121.9 351.7 122.75 350.4 123.2 349.7 125.15 344.7 127 340 126.9 338.65 Z"/>
</g>

<g id="Layer0_0_MEMBER_8_MEMBER_1_MEMBER_0_FILL">
<path fill="#DAE2F2" stroke="none" d="
M 114.05 350.1
L 115.1 361.15 124.75 361.15 125.8 350.1 114.05 350.1 Z"/>
</g>

<g id="Layer0_0_MEMBER_9_MEMBER_0_FILL">
<path fill="#3572E7" stroke="none" d="
M 56.7 281.85
Q 49.75 279.25 43.5 283.55 38.15 287.25 37.05 292.45 35.9 297.7 41 297 51.05 295.6 62.8 297.2 68.7 298 72.55 299.05
L 73 298.9
Q 65.45 285.15 56.7 281.85 Z"/>
</g>

<g id="Layer0_0_MEMBER_10_MEMBER_0_FILL">
<path fill="#EAEAEA" stroke="none" d="
M 58.85 319.55
Q 58.85 318.9 58.4 318.5 57.95 318.05 57.3 318.05 56.7 318.05 56.25 318.5 55.8 318.9 55.8 319.55 55.8 320.15 56.25 320.6 56.7 321.05 57.3 321.05 57.95 321.05 58.4 320.6 58.85 320.15 58.85 319.55 Z"/>
</g>

<g id="Layer0_0_MEMBER_11_MEMBER_0_FILL">
<path fill="#EAEAEA" stroke="none" d="
M 58.85 319.55
Q 58.85 318.9 58.4 318.5 57.95 318.05 57.3 318.05 56.7 318.05 56.25 318.5 55.8 318.9 55.8 319.55 55.8 320.15 56.25 320.6 56.7 321.05 57.3 321.05 57.95 321.05 58.4 320.6 58.85 320.15 58.85 319.55 Z"/>
</g>

<g id="Layer0_0_MEMBER_12_MEMBER_0_FILL">
<path fill="#97BADD" stroke="none" d="
M 79.55 324.5
L 79.55 323.35 67.25 323.35 67.25 324.5 79.55 324.5 Z"/>
</g>

<g id="Layer0_0_MEMBER_12_MEMBER_1_FILL">
<path fill="#BFD5F0" stroke="none" d="
M 47.65 312.8
L 51.2 324.5 68.3 324.5 64.75 312.8 47.65 312.8 Z"/>
</g>

<g id="Layer0_0_MEMBER_12_MEMBER_2_MEMBER_0_FILL">
<path fill="#EAEAEA" stroke="none" d="
M 58.85 319.55
Q 58.85 318.9 58.4 318.5 57.95 318.05 57.3 318.05 56.7 318.05 56.25 318.5 55.8 318.9 55.8 319.55 55.8 320.15 56.25 320.6 56.7 321.05 57.3 321.05 57.95 321.05 58.4 320.6 58.85 320.15 58.85 319.55 Z"/>
</g>

<g id="Layer0_0_MEMBER_13_MEMBER_0_FILL">
<path fill="#E65895" stroke="none" d="
M 46.3 321.2
Q 45.95 320.85 45.4 320.85
L 45.3 320.85 44.95 320.9 44.95 319.7 38.1 319.7 38.1 321.05
Q 38.1 322.45 39.1 323.5 40.1 324.5 41.5 324.5 43.3 324.5 44.4 322.95 44.7 323.35 45.3 323.35
L 45.4 323.35
Q 45.95 323.35 46.3 323 46.65 322.65 46.65 322.1 46.65 321.6 46.3 321.2
M 45.25 321.4
L 45.3 321.4
Q 45.95 321.4 45.95 322.1 45.95 322.35 45.75 322.6 45.55 322.8 45.3 322.8
L 45.25 322.8
Q 44.85 322.8 44.65 322.45 44.8 322.15 44.9 321.5
L 45.25 321.4 Z"/>
</g>

<g id="Layer0_0_MEMBER_13_MEMBER_1_FILL">
<path fill="#BFD5F0" stroke="none" d="
M 40.95 318.9
Q 41.75 319.05 41.3 317.65 40.6 315.45 41.25 313.9 42.05 312.1 41.25 309.45 40.4 307.35 40.5 307.8 40.75 308.8 40.55 310.2 40.3 312.05 39.25 313.75 38.2 315.5 39 317.15 39.7 318.65 40.95 318.9 Z"/>
</g>

<g id="Layer0_0_MEMBER_13_MEMBER_2_FILL">
<path fill="#BFD5F0" stroke="none" d="
M 42.75 318.35
Q 43.15 318.4 42.95 317.75 42.6 316.65 42.9 315.9 43.3 315 42.95 313.65 42.5 312.65 42.55 312.85 43 314.15 41.95 315.8 41.4 316.65 41.8 317.5 42.15 318.2 42.75 318.35 Z"/>
</g>

<g id="Layer0_0_MEMBER_14_FILL">
<path fill="#BFD5F0" stroke="none" d="
M 57.75 326.45
L 54.4 326.45 54.4 362.15 57.75 362.15 57.75 326.45 Z"/>
</g>

<g id="Layer0_0_MEMBER_15_FILL">
<path fill="#9CBAD8" stroke="none" d="
M 57.75 326.45
L 56.1 326.45 56.1 362.15 57.75 362.15 57.75 326.45 Z"/>
</g>

<g id="Layer0_0_MEMBER_16_FILL">
<path fill="#BFD5F0" stroke="none" d="
M 106.9 326.35
L 103.55 326.35 103.55 362 106.9 362 106.9 326.35 Z"/>
</g>

<g id="Layer0_0_MEMBER_17_FILL">
<path fill="#9CBAD8" stroke="none" d="
M 106.9 326.35
L 105.2 326.35 105.2 362 106.9 362 106.9 326.35 Z"/>
</g>

<g id="Layer0_0_MEMBER_18_FILL">
<path fill="#C0D6EE" stroke="none" d="
M 74.5 361.15
L 74.5 363.1 94.8 363.1 94.8 361.15 74.5 361.15 Z"/>
</g>

<g id="Layer0_0_MEMBER_19_FILL">
<path fill="#9CBAD8" stroke="none" d="
M 94.8 363.1
L 94.8 361.15 84.45 361.15 84.45 363.1 94.8 363.1 Z"/>
</g>

<g id="Layer0_0_MEMBER_20_MEMBER_0_FILL">
<path fill="#2166ED" stroke="none" d="
M 32.4 324.5
L 32.4 326.35 108.95 326.35 108.95 324.5 32.4 324.5 Z"/>
</g>

<g id="Layer0_0_MEMBER_21_MEMBER_0_FILL">
<path fill="#4E90F9" stroke="none" d="
M 56.05 324.5
L 56.05 326.35 108.95 326.35 108.95 324.5 56.05 324.5 Z"/>
</g>
</defs>

<g transform="matrix( 7, 0, 0, 7, -35.2,-1748) ">
<use xlink:href="#Layer0_0_MEMBER_0_MEMBER_0_FILL"/>
</g>

<g transform="matrix( 7, 0, 0, 7, -35.2,-1748) ">
<use xlink:href="#Layer0_0_MEMBER_1_FILL"/>
</g>

<g transform="matrix( 7, 0, 0, 7, -35.2,-1748) ">
<use xlink:href="#Layer0_0_MEMBER_2_FILL"/>
</g>

<g transform="matrix( 7, 0, 0, 7, -35.2,-1748) ">
<use xlink:href="#Layer0_0_MEMBER_3_FILL"/>
</g>

<g transform="matrix( 7, 0, 0, 7, -35.2,-1748) ">
<use xlink:href="#Layer0_0_MEMBER_4_FILL"/>
</g>

<g transform="matrix( 7, 0, 0, 7, -35.2,-1748) ">
<use xlink:href="#Layer0_0_MEMBER_5_MEMBER_0_FILL"/>
</g>

<g transform="matrix( 7, 0, 0, 7, -35.2,-1748) ">
<use xlink:href="#Layer0_0_MEMBER_6_MEMBER_0_MEMBER_0_MEMBER_0_MEMBER_0_MEMBER_0_FILL"/>
</g>

<g transform="matrix( 7, 0, 0, 7, -35.2,-1748) ">
<use xlink:href="#Layer0_0_MEMBER_6_MEMBER_1_MEMBER_0_MEMBER_0_MEMBER_0_MEMBER_0_FILL"/>
</g>

<g transform="matrix( 7, 0, 0, 7, -35.2,-1748) ">
<use xlink:href="#Layer0_0_MEMBER_6_MEMBER_2_MEMBER_0_MEMBER_0_MEMBER_0_MEMBER_0_FILL"/>
</g>

<g transform="matrix( 7, 0, 0, 7, -35.2,-1748) ">
<use xlink:href="#Layer0_0_MEMBER_6_MEMBER_3_MEMBER_0_MEMBER_0_MEMBER_0_MEMBER_0_MEMBER_0_FILL"/>
</g>

<g transform="matrix( 7, 0, 0, 7, -35.2,-1748) ">
<use xlink:href="#Layer0_0_MEMBER_6_MEMBER_3_MEMBER_1_MEMBER_0_MEMBER_0_MEMBER_0_MEMBER_0_MEMBER_0_FILL"/>
</g>

<g transform="matrix( 7, 0, 0, 7, -35.2,-1748) ">
<use xlink:href="#Layer0_0_MEMBER_6_MEMBER_4_MEMBER_0_MEMBER_0_MEMBER_0_MEMBER_0_FILL"/>
</g>

<g transform="matrix( 7, 0, 0, 7, -35.2,-1748) ">
<use xlink:href="#Layer0_0_MEMBER_6_MEMBER_5_MEMBER_0_MEMBER_0_MEMBER_0_MEMBER_0_FILL"/>
</g>

<g transform="matrix( 7, 0, 0, 7, -35.2,-1748) ">
<use xlink:href="#Layer0_0_MEMBER_6_MEMBER_6_MEMBER_0_MEMBER_0_MEMBER_0_MEMBER_0_FILL"/>
</g>

<g transform="matrix( 7, 0, 0, 7, -35.2,-1748) ">
<use xlink:href="#Layer0_0_MEMBER_6_MEMBER_7_MEMBER_0_MEMBER_0_MEMBER_0_MEMBER_0_FILL"/>
</g>

<g transform="matrix( 7, 0, 0, 7, -35.2,-1748) ">
<use xlink:href="#Layer0_0_MEMBER_6_MEMBER_8_MEMBER_0_MEMBER_0_MEMBER_0_MEMBER_0_FILL"/>
</g>

<g transform="matrix( 7, 0, 0, 7, -35.2,-1748) ">
<use xlink:href="#Layer0_0_MEMBER_6_MEMBER_9_MEMBER_0_MEMBER_0_MEMBER_0_MEMBER_0_FILL"/>
</g>

<g transform="matrix( 7, 0, 0, 7, -35.2,-1748) ">
<use xlink:href="#Layer0_0_MEMBER_6_MEMBER_10_MEMBER_0_MEMBER_0_MEMBER_0_MEMBER_0_MEMBER_0_FILL"/>
</g>

<g transform="matrix( 7, 0, 0, 7, -35.2,-1748) ">
<use xlink:href="#Layer0_0_MEMBER_6_MEMBER_10_MEMBER_1_MEMBER_0_MEMBER_0_MEMBER_0_MEMBER_0_MEMBER_0_FILL"/>
</g>

<g transform="matrix( 7, 0, 0, 7, -35.2,-1748) ">
<use xlink:href="#Layer0_0_MEMBER_7_MEMBER_0_FILL"/>
</g>

<g transform="matrix( 7, 0, 0, 7, -35.2,-1748) ">
<use xlink:href="#Layer0_0_MEMBER_8_MEMBER_0_MEMBER_0_FILL"/>
</g>

<g transform="matrix( 7, 0, 0, 7, -35.2,-1748) ">
<use xlink:href="#Layer0_0_MEMBER_8_MEMBER_1_MEMBER_0_FILL"/>
</g>

<g transform="matrix( 7, 0, 0, 7, -35.2,-1748) ">
<use xlink:href="#Layer0_0_MEMBER_9_MEMBER_0_FILL"/>
</g>

<g transform="matrix( 7, 0, 0, 7, -35.2,-1748) ">
<use xlink:href="#Layer0_0_MEMBER_10_MEMBER_0_FILL"/>
</g>

<g transform="matrix( 7, 0, 0, 7, -35.2,-1748) ">
<use xlink:href="#Layer0_0_MEMBER_11_MEMBER_0_FILL"/>
</g>

<g transform="matrix( 7, 0, 0, 7, -35.2,-1748) ">
<use xlink:href="#Layer0_0_MEMBER_12_MEMBER_0_FILL"/>
</g>

<g transform="matrix( 7, 0, 0, 7, -35.2,-1748) ">
<use xlink:href="#Layer0_0_MEMBER_12_MEMBER_1_FILL"/>
</g>

<g transform="matrix( 7, 0, 0, 7, -35.2,-1748) ">
<use xlink:href="#Layer0_0_MEMBER_12_MEMBER_2_MEMBER_0_FILL"/>
</g>

<g transform="matrix( 7, 0, 0, 7, -35.2,-1748) ">
<use xlink:href="#Layer0_0_MEMBER_13_MEMBER_0_FILL"/>
</g>

<g transform="matrix( 7, 0, 0, 7, -35.2,-1748) ">
<use xlink:href="#Layer0_0_MEMBER_13_MEMBER_1_FILL"/>
</g>

<g transform="matrix( 7, 0, 0, 7, -35.2,-1748) ">
<use xlink:href="#Layer0_0_MEMBER_13_MEMBER_2_FILL"/>
</g>

<g transform="matrix( 7, 0, 0, 7, -35.2,-1748) ">
<use xlink:href="#Layer0_0_MEMBER_14_FILL"/>
</g>

<g transform="matrix( 7, 0, 0, 7, -35.2,-1748) ">
<use xlink:href="#Layer0_0_MEMBER_15_FILL"/>
</g>

<g transform="matrix( 7, 0, 0, 7, -35.2,-1748) ">
<use xlink:href="#Layer0_0_MEMBER_16_FILL"/>
</g>

<g transform="matrix( 7, 0, 0, 7, -35.2,-1748) ">
<use xlink:href="#Layer0_0_MEMBER_17_FILL"/>
</g>

<g transform="matrix( 7, 0, 0, 7, -35.2,-1748) ">
<use xlink:href="#Layer0_0_MEMBER_18_FILL"/>
</g>

<g transform="matrix( 7, 0, 0, 7, -35.2,-1748) ">
<use xlink:href="#Layer0_0_MEMBER_19_FILL"/>
</g>

<g transform="matrix( 7, 0, 0, 7, -35.2,-1748) ">
<use xlink:href="#Layer0_0_MEMBER_20_MEMBER_0_FILL"/>
</g>

<g transform="matrix( 7, 0, 0, 7, -35.2,-1748) ">
<use xlink:href="#Layer0_0_MEMBER_21_MEMBER_0_FILL"/>
</g>
</svg>
